<svg width="70" height="70" viewBox="0 0 70 70" fill="none" xmlns="http://www.w3.org/2000/svg">
<g clip-path="url(#clip0)">
<rect width="70" height="70" rx="10" fill="black"/>
<path d="M94.8573 -15.5184C94.8573 -15.5184 68.4787 -2.95593 73.1606 28.1212C78.4135 62.967 47.9525 77.9223 27.1408 69.308C6.32912 60.6639 7.78508 28.6895 -31.7828 27.7024C-72.2071 26.7154 -80.7145 -13.5443 -80.7145 -13.5443" stroke="white" stroke-opacity="0.15" stroke-width="2" stroke-miterlimit="10"/>
<path d="M64.3677 -24.8806C64.3677 -24.8806 52.9484 1.68004 57.0308 28.0911C61.1417 54.5021 42.671 57.6128 35.3341 54.5021C20.0894 48.1013 17.1489 13.8237 -7.45971 11.6103C-25.959 9.93536 -50.8531 23.1857 -64.0424 -6.87439" stroke="white" stroke-opacity="0.15" stroke-width="2" stroke-miterlimit="10"/>
<path d="M52.0634 -13.0358C52.0634 -13.0358 56.1744 14.0931 37.9891 9.24758C17.1489 3.68422 17.4629 -9.35679 -8.91564 2.96636C-18.308 7.36322 -56.1059 8.64937 -48.4835 -15.5184" stroke="white" stroke-opacity="0.15" stroke-width="2" stroke-miterlimit="10"/>
<path d="M38.8742 45.1403C43.2416 45.1403 46.782 39.6766 46.782 32.9368C46.782 26.197 43.2416 20.7333 38.8742 20.7333C34.5068 20.7333 30.9663 26.197 30.9663 32.9368C30.9663 39.6766 34.5068 45.1403 38.8742 45.1403Z" stroke="white" stroke-opacity="0.15" stroke-width="2" stroke-miterlimit="10"/>
<!-- <path d="M19.1575 27.6465H30.474V28.5656H20.1948V35.4827H29.861V36.4017H20.1948V43.996H30.5919V44.9151H19.1575V27.6465ZM31.4878 27.6465H32.6902L38.0184 35.2408L43.4645 27.6465L50.8721 18L38.7021 36.0389L44.9734 44.9151H43.7238L38.0184 36.837L32.2894 44.9151H31.0634L37.3818 36.0389L31.4878 27.6465ZM45.4213 28.5656V27.6465H58.3175V28.5656H52.3763V44.9151H51.3389V28.5656H45.4213ZM5 27.6465H6.29669L24.1773 54.9861L16.7881 44.9151L6.0845 28.9525L6.03735 44.9151H5V27.6465ZM58.2129 43.7186C58.001 43.7186 57.842 43.5509 57.842 43.334C57.842 43.1172 58.001 42.9494 58.2129 42.9494C58.4274 42.9494 58.5838 43.1172 58.5838 43.334C58.5838 43.5509 58.4274 43.7186 58.2129 43.7186ZM59.2323 42.7067H59.7873C59.7949 43.0139 60.0144 43.2204 60.3374 43.2204C60.6982 43.2204 60.9025 42.9984 60.9025 42.5828V39.9498H61.4677V42.5854C61.4677 43.334 61.0438 43.7651 60.3424 43.7651C59.6839 43.7651 59.2323 43.3469 59.2323 42.7067ZM62.207 42.6732H62.7671C62.815 43.0268 63.1531 43.2514 63.6401 43.2514C64.0942 43.2514 64.4273 43.0113 64.4273 42.6809C64.4273 42.397 64.2153 42.2266 63.7334 42.1104L63.2641 41.9943C62.6056 41.8368 62.3054 41.5115 62.3054 40.9643C62.3054 40.3009 62.8352 39.8594 63.63 39.8594C64.3692 39.8594 64.9092 40.3009 64.942 40.9281H64.3919C64.339 40.5848 64.0463 40.3706 63.6224 40.3706C63.1758 40.3706 62.8781 40.59 62.8781 40.9256C62.8781 41.1914 63.0698 41.3437 63.5442 41.4573L63.9454 41.558C64.6922 41.7361 65 42.0459 65 42.6061C65 43.3185 64.4601 43.7651 63.5972 43.7651C62.7898 43.7651 62.2473 43.3392 62.207 42.6732Z" fill="white"/> -->
<path d="M127.505 0C57.095 0 0 57.085 0 127.505c0 56.336 36.534 104.13 87.196 120.99 6.372 1.18 8.712-2.766 8.712-6.134 0-3.04-.119-13.085-.173-23.739-35.473 7.713-42.958-15.044-42.958-15.044-5.8-14.738-14.157-18.656-14.157-18.656-11.568-7.914.872-7.752.872-7.752 12.804.9 19.546 13.14 19.546 13.14 11.372 19.493 29.828 13.857 37.104 10.6 1.144-8.242 4.449-13.866 8.095-17.05-28.32-3.225-58.092-14.158-58.092-63.014 0-13.92 4.981-25.295 13.138-34.224-1.324-3.212-5.688-16.18 1.235-33.743 0 0 10.707-3.427 35.073 13.07 10.17-2.826 21.078-4.242 31.914-4.29 10.836.048 21.752 1.464 31.942 4.29 24.337-16.497 35.029-13.07 35.029-13.07 6.94 17.563 2.574 30.531 1.25 33.743 8.175 8.929 13.122 20.303 13.122 34.224 0 48.972-29.828 59.756-58.22 62.912 4.573 3.957 8.648 11.717 8.648 23.612 0 17.06-.148 30.791-.148 34.991 0 3.393 2.295 7.369 8.759 6.117 50.634-16.879 87.122-64.656 87.122-120.973C255.009 57.085 197.922 0 127.505 0"/>
<path d="M47.755 181.634c-.28.633-1.278.823-2.185.389-.925-.416-1.445-1.28-1.145-1.916.275-.652 1.273-.834 2.196-.396.927.415 1.455 1.287 1.134 1.923M54.027 187.23c-.608.564-1.797.302-2.604-.589-.834-.889-.99-2.077-.373-2.65.627-.563 1.78-.3 2.616.59.834.899.996 2.08.36 2.65M58.33 194.39c-.782.543-2.06.034-2.849-1.1-.781-1.133-.781-2.493.017-3.038.792-.545 2.05-.055 2.85 1.07.78 1.153.78 2.513-.019 3.069M65.606 202.683c-.699.77-2.187.564-3.277-.488-1.114-1.028-1.425-2.487-.724-3.258.707-.772 2.204-.555 3.302.488 1.107 1.026 1.445 2.496.7 3.258M75.01 205.483c-.307.998-1.741 1.452-3.185 1.028-1.442-.437-2.386-1.607-2.095-2.616.3-1.005 1.74-1.478 3.195-1.024 1.44.435 2.386 1.596 2.086 2.612M85.714 206.67c.036 1.052-1.189 1.924-2.705 1.943-1.525.033-2.758-.818-2.774-1.852 0-1.062 1.197-1.926 2.721-1.951 1.516-.03 2.758.815 2.758 1.86M96.228 206.267c.182 1.026-.872 2.08-2.377 2.36-1.48.27-2.85-.363-3.039-1.38-.184-1.052.89-2.105 2.367-2.378 1.508-.262 2.857.355 3.049 1.398"/>
</g>
<defs>
<clipPath id="clip0">
<rect width="70" height="70" rx="10" fill="white"/>
</clipPath>
</defs>
</svg>
